<svg xmlns="http://www.w3.org/2000/svg" width="43" height="43" viewBox="0 0 43 43">
  <defs>
    <style>
      .cls-1 {
        fill: #0a315a;
      }

      .cls-2 {
        fill: #fff;
      }
    </style>
  </defs>
  <g id="Group_356" data-name="Group 356" transform="translate(-431 -5936)">
    <circle id="Ellipse_90" data-name="Ellipse 90" class="cls-1" cx="21.5" cy="21.5" r="21.5" transform="translate(431 5936)"/>
    <g id="Twitter" transform="translate(394 5729.11)">
      <path id="Path_1" data-name="Path 1" class="cls-2" d="M66,224.236a5.739,5.739,0,0,1-1.649.452,2.884,2.884,0,0,0,1.262-1.588,5.793,5.793,0,0,1-1.825.7,2.874,2.874,0,0,0-4.894,2.618,8.154,8.154,0,0,1-5.919-3,2.875,2.875,0,0,0,.889,3.833,2.872,2.872,0,0,1-1.3-.36v.036a2.875,2.875,0,0,0,2.3,2.816,2.907,2.907,0,0,1-.757.1,2.751,2.751,0,0,1-.541-.053,2.874,2.874,0,0,0,2.682,1.995,5.762,5.762,0,0,1-3.567,1.227A6.1,6.1,0,0,1,52,232.97a8.165,8.165,0,0,0,12.573-6.879l-.01-.372A5.737,5.737,0,0,0,66,224.236Zm0,0" transform="translate(0 0)"/>
    </g>
  </g>
</svg>
